<?xml version="1.0" encoding="UTF-8" standalone="no"?>
<svg
   xmlns:dc="http://purl.org/dc/elements/1.1/"
   xmlns:cc="http://creativecommons.org/ns#"
   xmlns:rdf="http://www.w3.org/1999/02/22-rdf-syntax-ns#"
   xmlns:svg="http://www.w3.org/2000/svg"
   xmlns="http://www.w3.org/2000/svg"
   xmlns:sodipodi="http://sodipodi.sourceforge.net/DTD/sodipodi-0.dtd"
   xmlns:inkscape="http://www.inkscape.org/namespaces/inkscape"
   width="14.3593in"
   height="6.13812in"
   viewBox="0 0 1034 442"
   version="1.1"
   id="svg3761"
   sodipodi:docname="cheetah.svg"
   inkscape:version="0.92.3 (2405546, 2018-03-11)">
  <metadata
     id="metadata3767">
    <rdf:RDF>
      <cc:Work
         rdf:about="">
        <dc:format>image/svg+xml</dc:format>
        <dc:type
           rdf:resource="http://purl.org/dc/dcmitype/StillImage" />
      </cc:Work>
    </rdf:RDF>
  </metadata>
  <defs
     id="defs3765" />
  <sodipodi:namedview
     pagecolor="#ffffff"
     bordercolor="#666666"
     borderopacity="1"
     objecttolerance="10"
     gridtolerance="10"
     guidetolerance="10"
     inkscape:pageopacity="0"
     inkscape:pageshadow="2"
     inkscape:window-width="1869"
     inkscape:window-height="1025"
     id="namedview3763"
     showgrid="false"
     inkscape:zoom="0.61589006"
     inkscape:cx="1123.8718"
     inkscape:cy="450.2936"
     inkscape:window-x="51"
     inkscape:window-y="27"
     inkscape:window-maximized="1"
     inkscape:current-layer="svg3761"
     inkscape:snap-page="false" />
  <path
     style="stroke-width:0.86979473"
     d="m 497.75425,435.76946 c -4.50286,-2.52856 -8.47137,-7.16791 -10.27305,-12.0096 -1.5306,-4.11321 -1.5354,-4.41559 -0.10367,-6.51731 1.89239,-2.77792 3.48722,-7.51772 3.48722,-10.36392 0,-1.20317 -1.13248,-4.06508 -2.51661,-6.35978 -1.38414,-2.2947 -2.89777,-5.58034 -3.36362,-7.30142 -1.70928,-6.31487 -0.49612,-8.31144 13.82398,-22.75097 12.84079,-12.94791 24.78137,-26.47056 24.78137,-28.0648 0,-0.42459 -0.67818,-1.01861 -1.50708,-1.32004 -3.28201,-1.19349 -3.69049,-2.05945 -2.28209,-4.83775 0.73294,-1.44581 1.20664,-2.75724 1.05266,-2.91431 -0.15398,-0.15708 -2.41088,0.29933 -5.01534,1.01421 -2.60445,0.7149 -7.64932,1.52336 -11.21082,1.79658 -5.49911,0.42189 -7.15468,0.19874 -10.98015,-1.47999 -2.47756,-1.08724 -4.50467,-2.14152 -4.50467,-2.34286 0,-0.93774 4.01259,-8.25308 6.96428,-12.69657 4.09404,-6.16319 7.64262,-9.24828 12.02099,-10.45094 1.87308,-0.51451 3.40165,-1.21671 3.39684,-1.56046 -0.005,-0.34374 -1.52308,-1.27358 -3.37392,-2.06626 -5.12229,-2.19382 -6.53967,-5.60182 -6.43379,-15.46965 0.0812,-7.56926 -0.0308,-8.12602 -1.63473,-8.12602 -0.94705,0 -5.63669,-1.36161 -10.42143,-3.02583 -4.78474,-1.6642 -12.18733,-3.84721 -16.45021,-4.85111 -16.03179,-3.77547 -23.26527,-7.36616 -25.79521,-12.80472 -2.13695,-4.59377 -1.0013,-8.28241 5.21596,-16.94162 10.04434,-16.13895 25.83173,-35.15805 29.18198,-50.66478 2.00071,-11.84587 -29.02085,-8.58848 -36.98049,-8.82128 -21.61467,1.15611 -31.92602,-7.08243 -51.5059,-13.27361 -6.78662,-2.08322 -25.7885,-13.80776 -27.67776,-17.07772 -1.3637,-2.36031 -1.7929,-2.61583 -2.58357,-1.53812 -51.30506,59.75178 -95.3882,114.91333 -147.92138,147.27607 -12.4744,7.6784 -26.74982,16.27007 -31.72318,19.0926 -4.97336,2.82252 -11.76226,6.93442 -15.08645,9.13753 -3.32419,2.20312 -17.46919,9.84219 -31.43334,16.97573 C 108.59382,361.49921 82.635152,366.12643 55.960775,362.8166 36.121641,360.30481 32.54305,359.39122 22.499087,354.27401 11.779891,348.81278 4.98523,342.27914 3.074454,335.59557 c -3.87472139,-15.44434 1.636582,-21.00781 15.615829,-23.94148 6.088183,-1.15498 14.498944,0.15708 27.138046,4.23344 15.202151,4.90298 27.396271,5.75663 48.029046,3.36227 17.314235,-2.00925 21.030125,-2.83134 31.729235,-7.0196 6.77802,-2.65332 15.74274,-7.44324 29.28037,-15.64474 10.73128,-6.50134 21.25532,-12.70068 23.38676,-13.77632 4.32665,-2.18348 45.69097,-32.60863 58.49299,-43.024 4.53697,-3.69115 10.55039,-9.64963 13.36315,-13.24106 2.81277,-3.59145 8.0756,-10.08777 11.69519,-14.43629 3.61958,-4.34852 10.38573,-13.24321 15.03589,-19.76599 4.65015,-6.52277 11.61847,-15.81278 15.48513,-20.64447 3.86667,-4.83168 11.52741,-14.71468 17.02386,-21.9622 7.5436,-9.94687 13.01979,-16.01072 22.33795,-24.73506 16.45615,-15.40743 24.57403,-22.70411 33.87409,-30.447407 4.26288,-3.549295 10.56403,-9.091799 14.00255,-12.316669 3.43853,-3.22488 14.09573,-12.210342 23.68265,-19.967716 17.50477,-16.485593 32.69036,-28.106763 51.87829,-36.578323 29.85999,-9.673272 61.11716,-16.4536641 93.33637,-20.5096013 14.66315,-1.7176411 63.7568,-0.6221098 78.9011,1.7606878 21.93231,3.4508245 26.36803,4.7604815 41.76759,12.3319775 27.08717,12.774646 37.3215,9.515506 65.153,17.91395 5.75718,1.761959 13.12033,3.583179 16.36258,4.047156 12.82168,2.180949 25.30694,6.842961 35.08963,1.743052 8.4954,-5.603161 15.11619,1.16481 24.34078,5.075742 16.05315,6.806067 20.12721,8.181233 27.84673,9.399602 34.99792,7.214897 60.03451,-10.995372 92.14706,-12.297007 4.49966,-0.0872 8.63073,-0.212808 9.18017,-0.279135 0.54937,-0.06633 2.64761,-1.885327 4.66281,-4.042224 2.01521,-2.156898 4.91822,-4.528816 6.45134,-5.27093 3.81986,-1.849065 10.38236,-1.660922 14.89312,0.426973 3.83606,2.401738 8.88725,0.725581 12.57263,2.556982 0.27296,0.450613 1.71674,0.7839 3.20846,0.740637 1.94154,-0.05631 3.28301,0.5984 4.72157,2.304398 1.6971,2.012633 2.0095,3.352567 2.0095,8.62019 0,5.373556 0.3119,6.654396 2.2533,9.250812 1.5621,2.089126 2.7508,2.881015 3.8745,2.581237 0.8916,-0.237845 1.7915,-0.151116 1.9999,0.192731 0.2083,0.343843 2.5504,1.745997 5.20458,3.115896 5.935,3.063165 9.8673,7.632391 14.2463,16.554332 4.078,8.308466 4.7312,11.480104 3.5355,17.167307 -1.2421,5.9078 0.2131,11.32798 5.2593,19.58993 2.1744,3.56004 5.102,9.42672 6.5058,13.03707 2.7959,7.19062 2.5623,9.5773 -1.1041,11.28139 -1.6413,0.76283 -2.1027,0.60194 -2.8717,-1.00124 l -0.9161,-1.91012 -0.5849,2.00123 c -0.4395,1.50374 -1.0087,1.86404 -2.2895,1.44937 -1.5712,-0.50869 -1.6807,-0.20042 -1.4003,3.93962 0.2531,3.73704 0.041,4.57675 -1.2651,4.99904 -0.9056,0.29287 -1.3723,1.03136 -1.1035,1.74592 0.2562,0.6811 -0.01,1.24058 -0.5836,1.24327 -3.293,0.0154 -8.0759,2.31825 -11.7746,5.66926 -2.3196,2.10147 -5.3874,4.083 -6.81729,4.40339 -4.13949,0.92745 -12.10879,-1.84425 -17.81013,-6.19435 -2.79552,-2.13304 -6.44833,-4.17035 -8.11729,-4.52734 -3.84844,-0.82323 -13.00259,-0.76862 -22.41102,0.1337 -6.53872,0.62711 -7.82566,0.4926 -12.05656,-1.26024 -8.10492,-3.35779 -10.00371,-3.54466 -16.2646,-1.60076 -12.70644,3.91391 -24.70693,9.21503 -35.83725,13.91649 -2.84196,1.15425 -15.81889,7.37924 -28.83783,13.83331 -15.96229,6.63837 -22.35902,10.35437 -33.64345,22.22903 -9.21164,9.34316 -22.147,21.78189 -31.38814,26.53311 -14.86942,7.55805 -27.19347,10.68388 -46.07356,11.68599 -11.62913,0.61725 -29.14781,4.61778 -52.10183,11.8979 -12.63727,4.00805 -14.61556,5.18101 -34.0169,20.16895 -15.17606,11.72383 -23.38582,18.84305 -22.62478,19.6194 0.28654,0.29228 2.00323,0.53143 3.81489,0.53143 7.89573,1.50297 24.98471,13.97974 24.6367,22.3312 -4.21861,7.45346 -19.2643,10.51215 -25.76836,9.43267 -3.00491,-0.52216 -11.32137,-1.21835 -18.481,-1.54711 l -13.01754,-0.59775 -10.23452,4.11676 c -14.15787,5.69489 -14.74289,6.0344 -25.01406,14.51697 -5.01561,4.14219 -12.8491,10.5135 -17.40778,14.15846 -5.87801,4.69985 -9.91645,8.84618 -13.88622,14.2572 -3.07874,4.19649 -8.39131,10.22487 -11.8057,13.39639 -9.47587,8.80184 -13.83277,19.72817 -12.53827,31.44371 0.32683,2.95786 0.15135,4.11532 -0.62391,4.11532 -0.85285,0 -0.84742,0.28419 0.026,1.35771 4.28428,2.62891 3.31683,2.49864 0.66584,7.60579 -3.70741,7.09555 -7.24334,9.74512 -13.48509,10.10478 -3.58234,0.20642 -5.6635,-0.16644 -7.88178,-1.41211 z m 90.44003,-167.48548 c 6.26151,-17.93378 26.46308,-30.86366 28.40382,-50.31482 -8.00432,-8.06378 -27.53249,-11.83612 -39.95648,-16.84318 -1.44596,0 -9.19717,11.94459 -11.97164,18.44825 -2.60437,6.10492 -3.79488,11.05205 -5.35725,22.26199 -1.53884,11.04121 -1.60964,18.22685 -0.19888,20.18633 8.39714,4.76849 18.55034,6.18245 27.05719,11.91562 0.0798,0.0563 0.99025,-2.48843 2.02324,-5.65491 z"
     id="path3773"
     inkscape:connector-curvature="0"
     sodipodi:nodetypes="cscscccsccccccssscccscscccccscccsccsccsscsccccscsscscccsccccccccccccscscccccccsccccccccccccccccccccsssccccsccsscscsccccccccsccccc" />
</svg>
